<svg xmlns="http://www.w3.org/2000/svg" viewBox="0 0 24 24" fill="none" stroke="currentColor" stroke-width="1.5" stroke-linecap="round" stroke-linejoin="round">
  <path d="M3.75 3.75 20.25 20.25" />
  <path d="M6.31 6.31C3.9 7.98 2.25 10.39 2.25 12c1.5 3.5 5 6 9.75 6 1.84 0 3.55-.36 5.08-1.01" />
  <path d="M17.87 10.54c.92.76 1.68 1.7 2.13 2.71-1.5 3.5-5 6-9.75 6-.89 0-1.75-.09-2.57-.26" />
  <path d="M9.78 9.78c-.48.48-.78 1.15-.78 1.89 0 1.52 1.23 2.75 2.75 2.75.74 0 1.41-.3 1.89-.78" />
</svg>
